<mxfile host="app.diagrams.net" modified="2021-11-29T18:34:19.603Z" agent="5.0 (Windows NT 6.1; Win64; x64) AppleWebKit/537.36 (KHTML, like Gecko) Chrome/96.0.4664.45 Safari/537.36" etag="1AFwjhpytu31HXsDbqDv" version="15.8.7" type="github">
  <diagram id="aShKJb1EcJVqntHxSxEi" name="Page-1">
    <mxGraphModel dx="187" dy="817" grid="1" gridSize="10" guides="1" tooltips="1" connect="1" arrows="1" fold="1" page="1" pageScale="1" pageWidth="827" pageHeight="1169" math="0" shadow="0">
      <root>
        <mxCell id="0" />
        <mxCell id="1" parent="0" />
        <mxCell id="8L_f6q-vc3C_Bcib5PFj-7" value="" style="edgeStyle=orthogonalEdgeStyle;rounded=0;orthogonalLoop=1;jettySize=auto;html=1;" parent="1" source="8L_f6q-vc3C_Bcib5PFj-8" target="8L_f6q-vc3C_Bcib5PFj-11" edge="1">
          <mxGeometry relative="1" as="geometry" />
        </mxCell>
        <mxCell id="8L_f6q-vc3C_Bcib5PFj-8" value="i=0" style="whiteSpace=wrap;html=1;rounded=0;" parent="1" vertex="1">
          <mxGeometry x="1131" y="290" width="80" height="20" as="geometry" />
        </mxCell>
        <mxCell id="qnYledQh9NX3tpmkD9LS-4" value="" style="edgeStyle=orthogonalEdgeStyle;rounded=0;orthogonalLoop=1;jettySize=auto;html=1;" parent="1" source="8L_f6q-vc3C_Bcib5PFj-11" target="qnYledQh9NX3tpmkD9LS-1" edge="1">
          <mxGeometry relative="1" as="geometry" />
        </mxCell>
        <mxCell id="8L_f6q-vc3C_Bcib5PFj-11" value="i&amp;lt;3" style="rhombus;whiteSpace=wrap;html=1;rounded=0;" parent="1" vertex="1">
          <mxGeometry x="1111" y="340" width="120" height="40" as="geometry" />
        </mxCell>
        <mxCell id="8L_f6q-vc3C_Bcib5PFj-13" value="" style="edgeStyle=orthogonalEdgeStyle;rounded=0;orthogonalLoop=1;jettySize=auto;html=1;entryX=0.5;entryY=0;entryDx=0;entryDy=0;startArrow=none;exitX=0.5;exitY=1;exitDx=0;exitDy=0;" parent="1" source="8L_f6q-vc3C_Bcib5PFj-18" target="8L_f6q-vc3C_Bcib5PFj-11" edge="1">
          <mxGeometry relative="1" as="geometry">
            <mxPoint x="1191" y="320" as="targetPoint" />
            <Array as="points">
              <mxPoint x="1165" y="750" />
              <mxPoint x="990" y="750" />
              <mxPoint x="990" y="320" />
              <mxPoint x="1171" y="320" />
            </Array>
            <mxPoint x="1166" y="550" as="sourcePoint" />
          </mxGeometry>
        </mxCell>
        <mxCell id="8L_f6q-vc3C_Bcib5PFj-16" value="нет" style="text;html=1;align=center;verticalAlign=middle;resizable=0;points=[];autosize=1;strokeColor=none;fillColor=none;" parent="1" vertex="1">
          <mxGeometry x="1221.5" y="440" width="40" height="20" as="geometry" />
        </mxCell>
        <mxCell id="8L_f6q-vc3C_Bcib5PFj-18" value="i=i+1" style="rounded=0;whiteSpace=wrap;html=1;" parent="1" vertex="1">
          <mxGeometry x="1130.25" y="680" width="70" height="20" as="geometry" />
        </mxCell>
        <mxCell id="8L_f6q-vc3C_Bcib5PFj-27" value="" style="edgeStyle=orthogonalEdgeStyle;rounded=0;orthogonalLoop=1;jettySize=auto;html=1;" parent="1" target="8L_f6q-vc3C_Bcib5PFj-26" edge="1">
          <mxGeometry relative="1" as="geometry">
            <mxPoint x="1171.0285714285715" y="120" as="sourcePoint" />
          </mxGeometry>
        </mxCell>
        <mxCell id="8L_f6q-vc3C_Bcib5PFj-29" value="" style="edgeStyle=orthogonalEdgeStyle;rounded=0;orthogonalLoop=1;jettySize=auto;html=1;exitX=0.505;exitY=0.879;exitDx=0;exitDy=0;exitPerimeter=0;" parent="1" source="8L_f6q-vc3C_Bcib5PFj-26" target="8L_f6q-vc3C_Bcib5PFj-28" edge="1">
          <mxGeometry relative="1" as="geometry" />
        </mxCell>
        <mxCell id="8L_f6q-vc3C_Bcib5PFj-26" value="&quot;enter elements of array&quot;" style="shape=document;whiteSpace=wrap;html=1;boundedLbl=1;" parent="1" vertex="1">
          <mxGeometry x="1131" y="150" width="80" height="60" as="geometry" />
        </mxCell>
        <mxCell id="8L_f6q-vc3C_Bcib5PFj-30" value="" style="edgeStyle=orthogonalEdgeStyle;rounded=0;orthogonalLoop=1;jettySize=auto;html=1;entryX=0.5;entryY=0;entryDx=0;entryDy=0;" parent="1" source="8L_f6q-vc3C_Bcib5PFj-28" target="8L_f6q-vc3C_Bcib5PFj-8" edge="1">
          <mxGeometry relative="1" as="geometry" />
        </mxCell>
        <mxCell id="8L_f6q-vc3C_Bcib5PFj-28" value="a[3][3], m" style="whiteSpace=wrap;html=1;" parent="1" vertex="1">
          <mxGeometry x="1120.5" y="230" width="101" height="30" as="geometry" />
        </mxCell>
        <mxCell id="8L_f6q-vc3C_Bcib5PFj-31" value="начало" style="rounded=1;whiteSpace=wrap;html=1;" parent="1" vertex="1">
          <mxGeometry x="1131" y="90" width="81" height="30" as="geometry" />
        </mxCell>
        <mxCell id="qnYledQh9NX3tpmkD9LS-8" value="" style="edgeStyle=orthogonalEdgeStyle;rounded=0;orthogonalLoop=1;jettySize=auto;html=1;exitX=0.49;exitY=0.85;exitDx=0;exitDy=0;exitPerimeter=0;" parent="1" source="8L_f6q-vc3C_Bcib5PFj-32" target="8L_f6q-vc3C_Bcib5PFj-34" edge="1">
          <mxGeometry relative="1" as="geometry" />
        </mxCell>
        <mxCell id="8L_f6q-vc3C_Bcib5PFj-32" value="&quot;element [&quot;, i + 1, &quot;][&quot;, j + 1,&amp;nbsp; &quot;] = &quot;" style="shape=document;whiteSpace=wrap;html=1;boundedLbl=1;" parent="1" vertex="1">
          <mxGeometry x="1066" y="500" width="115" height="50" as="geometry" />
        </mxCell>
        <mxCell id="qnYledQh9NX3tpmkD9LS-13" value="" style="edgeStyle=orthogonalEdgeStyle;rounded=0;orthogonalLoop=1;jettySize=auto;html=1;" parent="1" edge="1">
          <mxGeometry relative="1" as="geometry">
            <mxPoint x="1171" y="440" as="targetPoint" />
            <mxPoint x="1124" y="640" as="sourcePoint" />
            <Array as="points">
              <mxPoint x="1124" y="660" />
              <mxPoint x="1030" y="660" />
              <mxPoint x="1030" y="430" />
              <mxPoint x="1171" y="430" />
            </Array>
          </mxGeometry>
        </mxCell>
        <mxCell id="qnYledQh9NX3tpmkD9LS-33" value="" style="edgeStyle=orthogonalEdgeStyle;rounded=0;orthogonalLoop=1;jettySize=auto;html=1;" parent="1" source="8L_f6q-vc3C_Bcib5PFj-34" target="qnYledQh9NX3tpmkD9LS-32" edge="1">
          <mxGeometry relative="1" as="geometry" />
        </mxCell>
        <mxCell id="8L_f6q-vc3C_Bcib5PFj-34" value="a[i][j]" style="whiteSpace=wrap;html=1;" parent="1" vertex="1">
          <mxGeometry x="1080.38" y="575" width="82.25" height="20" as="geometry" />
        </mxCell>
        <mxCell id="8L_f6q-vc3C_Bcib5PFj-38" value="да" style="text;html=1;align=center;verticalAlign=middle;resizable=0;points=[];autosize=1;strokeColor=none;fillColor=none;" parent="1" vertex="1">
          <mxGeometry x="1181" y="380" width="30" height="20" as="geometry" />
        </mxCell>
        <mxCell id="qnYledQh9NX3tpmkD9LS-12" value="" style="edgeStyle=orthogonalEdgeStyle;rounded=0;orthogonalLoop=1;jettySize=auto;html=1;entryX=0.5;entryY=0;entryDx=0;entryDy=0;" parent="1" source="qnYledQh9NX3tpmkD9LS-1" target="qnYledQh9NX3tpmkD9LS-6" edge="1">
          <mxGeometry relative="1" as="geometry" />
        </mxCell>
        <mxCell id="qnYledQh9NX3tpmkD9LS-1" value="j=0" style="whiteSpace=wrap;html=1;rounded=0;" parent="1" vertex="1">
          <mxGeometry x="1130.25" y="400" width="81.5" height="20" as="geometry" />
        </mxCell>
        <mxCell id="qnYledQh9NX3tpmkD9LS-7" value="" style="edgeStyle=orthogonalEdgeStyle;rounded=0;orthogonalLoop=1;jettySize=auto;html=1;" parent="1" source="qnYledQh9NX3tpmkD9LS-6" edge="1">
          <mxGeometry relative="1" as="geometry">
            <mxPoint x="1090" y="500" as="targetPoint" />
            <Array as="points">
              <mxPoint x="1090" y="460" />
              <mxPoint x="1090" y="500" />
            </Array>
          </mxGeometry>
        </mxCell>
        <mxCell id="qnYledQh9NX3tpmkD9LS-11" value="" style="edgeStyle=orthogonalEdgeStyle;rounded=0;orthogonalLoop=1;jettySize=auto;html=1;exitX=1;exitY=0.5;exitDx=0;exitDy=0;entryX=0.588;entryY=0.03;entryDx=0;entryDy=0;entryPerimeter=0;" parent="1" source="qnYledQh9NX3tpmkD9LS-6" target="8L_f6q-vc3C_Bcib5PFj-18" edge="1">
          <mxGeometry relative="1" as="geometry">
            <mxPoint x="1171" y="676" as="targetPoint" />
            <Array as="points">
              <mxPoint x="1250" y="460" />
              <mxPoint x="1250" y="610" />
              <mxPoint x="1171" y="610" />
              <mxPoint x="1171" y="676" />
              <mxPoint x="1171" y="676" />
            </Array>
          </mxGeometry>
        </mxCell>
        <mxCell id="qnYledQh9NX3tpmkD9LS-6" value="j&amp;lt;3" style="rhombus;whiteSpace=wrap;html=1;rounded=0;" parent="1" vertex="1">
          <mxGeometry x="1111" y="440" width="120" height="40" as="geometry" />
        </mxCell>
        <mxCell id="qnYledQh9NX3tpmkD9LS-9" value="да" style="text;html=1;align=center;verticalAlign=middle;resizable=0;points=[];autosize=1;strokeColor=none;fillColor=none;" parent="1" vertex="1">
          <mxGeometry x="1080.38" y="440" width="30" height="20" as="geometry" />
        </mxCell>
        <mxCell id="qnYledQh9NX3tpmkD9LS-15" value="" style="edgeStyle=orthogonalEdgeStyle;rounded=0;orthogonalLoop=1;jettySize=auto;html=1;exitX=1;exitY=0.5;exitDx=0;exitDy=0;" parent="1" source="8L_f6q-vc3C_Bcib5PFj-11" edge="1">
          <mxGeometry relative="1" as="geometry">
            <mxPoint x="1280" y="360" as="targetPoint" />
          </mxGeometry>
        </mxCell>
        <mxCell id="qnYledQh9NX3tpmkD9LS-10" value="нет" style="text;html=1;align=center;verticalAlign=middle;resizable=0;points=[];autosize=1;strokeColor=none;fillColor=none;" parent="1" vertex="1">
          <mxGeometry x="1231" y="340" width="40" height="20" as="geometry" />
        </mxCell>
        <mxCell id="qnYledQh9NX3tpmkD9LS-21" value="" style="edgeStyle=orthogonalEdgeStyle;rounded=0;orthogonalLoop=1;jettySize=auto;html=1;" parent="1" source="qnYledQh9NX3tpmkD9LS-14" target="qnYledQh9NX3tpmkD9LS-20" edge="1">
          <mxGeometry relative="1" as="geometry" />
        </mxCell>
        <mxCell id="qnYledQh9NX3tpmkD9LS-14" value="i=0 , j=1" style="whiteSpace=wrap;html=1;rounded=0;" parent="1" vertex="1">
          <mxGeometry x="1450" y="120" width="80" height="20" as="geometry" />
        </mxCell>
        <mxCell id="qnYledQh9NX3tpmkD9LS-17" value="1" style="ellipse;whiteSpace=wrap;html=1;aspect=fixed;" parent="1" vertex="1">
          <mxGeometry x="1280" y="345" width="30" height="30" as="geometry" />
        </mxCell>
        <mxCell id="qnYledQh9NX3tpmkD9LS-19" value="" style="edgeStyle=orthogonalEdgeStyle;rounded=0;orthogonalLoop=1;jettySize=auto;html=1;entryX=0.5;entryY=0;entryDx=0;entryDy=0;" parent="1" source="qnYledQh9NX3tpmkD9LS-18" target="qnYledQh9NX3tpmkD9LS-14" edge="1">
          <mxGeometry relative="1" as="geometry">
            <mxPoint x="1490" y="100" as="targetPoint" />
          </mxGeometry>
        </mxCell>
        <mxCell id="qnYledQh9NX3tpmkD9LS-18" value="1" style="ellipse;whiteSpace=wrap;html=1;aspect=fixed;" parent="1" vertex="1">
          <mxGeometry x="1475" y="50" width="30" height="30" as="geometry" />
        </mxCell>
        <mxCell id="qnYledQh9NX3tpmkD9LS-23" value="" style="edgeStyle=orthogonalEdgeStyle;rounded=0;orthogonalLoop=1;jettySize=auto;html=1;" parent="1" source="qnYledQh9NX3tpmkD9LS-20" edge="1">
          <mxGeometry relative="1" as="geometry">
            <mxPoint x="1490" y="230" as="targetPoint" />
          </mxGeometry>
        </mxCell>
        <mxCell id="qnYledQh9NX3tpmkD9LS-20" value="i&amp;lt;3" style="rhombus;whiteSpace=wrap;html=1;rounded=0;" parent="1" vertex="1">
          <mxGeometry x="1430" y="170" width="120" height="40" as="geometry" />
        </mxCell>
        <mxCell id="qnYledQh9NX3tpmkD9LS-27" value="" style="edgeStyle=orthogonalEdgeStyle;rounded=0;orthogonalLoop=1;jettySize=auto;html=1;" parent="1" source="qnYledQh9NX3tpmkD9LS-22" edge="1">
          <mxGeometry relative="1" as="geometry">
            <mxPoint x="1490" y="320" as="targetPoint" />
          </mxGeometry>
        </mxCell>
        <mxCell id="qnYledQh9NX3tpmkD9LS-22" value="min = a[i][0]&lt;br&gt;b[i]" style="whiteSpace=wrap;html=1;rounded=0;" parent="1" vertex="1">
          <mxGeometry x="1442.5" y="230" width="95" height="30" as="geometry" />
        </mxCell>
        <mxCell id="qnYledQh9NX3tpmkD9LS-24" value="да" style="text;html=1;align=center;verticalAlign=middle;resizable=0;points=[];autosize=1;strokeColor=none;fillColor=none;" parent="1" vertex="1">
          <mxGeometry x="1490" y="210" width="30" height="20" as="geometry" />
        </mxCell>
        <mxCell id="qnYledQh9NX3tpmkD9LS-35" value="" style="edgeStyle=orthogonalEdgeStyle;rounded=0;orthogonalLoop=1;jettySize=auto;html=1;exitX=1;exitY=0.5;exitDx=0;exitDy=0;" parent="1" source="qnYledQh9NX3tpmkD9LS-20" edge="1">
          <mxGeometry relative="1" as="geometry">
            <mxPoint x="1493" y="690" as="targetPoint" />
            <Array as="points">
              <mxPoint x="1620" y="190" />
              <mxPoint x="1620" y="670" />
              <mxPoint x="1493" y="670" />
            </Array>
          </mxGeometry>
        </mxCell>
        <mxCell id="qnYledQh9NX3tpmkD9LS-25" value="нет" style="text;html=1;align=center;verticalAlign=middle;resizable=0;points=[];autosize=1;strokeColor=none;fillColor=none;" parent="1" vertex="1">
          <mxGeometry x="1535" y="170" width="40" height="20" as="geometry" />
        </mxCell>
        <mxCell id="qnYledQh9NX3tpmkD9LS-29" value="" style="edgeStyle=orthogonalEdgeStyle;rounded=0;orthogonalLoop=1;jettySize=auto;html=1;" parent="1" target="qnYledQh9NX3tpmkD9LS-28" edge="1">
          <mxGeometry relative="1" as="geometry">
            <mxPoint x="1490" y="300" as="sourcePoint" />
          </mxGeometry>
        </mxCell>
        <mxCell id="qnYledQh9NX3tpmkD9LS-37" value="" style="edgeStyle=orthogonalEdgeStyle;rounded=0;orthogonalLoop=1;jettySize=auto;html=1;startArrow=none;" parent="1" source="qnYledQh9NX3tpmkD9LS-50" edge="1">
          <mxGeometry relative="1" as="geometry">
            <mxPoint x="1490" y="170" as="targetPoint" />
            <mxPoint x="1500" y="590" as="sourcePoint" />
            <Array as="points">
              <mxPoint x="1370" y="150" />
              <mxPoint x="1490" y="150" />
            </Array>
          </mxGeometry>
        </mxCell>
        <mxCell id="qnYledQh9NX3tpmkD9LS-41" value="" style="edgeStyle=orthogonalEdgeStyle;rounded=0;orthogonalLoop=1;jettySize=auto;html=1;" parent="1" source="qnYledQh9NX3tpmkD9LS-28" target="qnYledQh9NX3tpmkD9LS-40" edge="1">
          <mxGeometry relative="1" as="geometry" />
        </mxCell>
        <mxCell id="qnYledQh9NX3tpmkD9LS-28" value="j&amp;lt;3" style="rhombus;whiteSpace=wrap;html=1;rounded=0;" parent="1" vertex="1">
          <mxGeometry x="1430" y="320" width="120" height="40" as="geometry" />
        </mxCell>
        <mxCell id="qnYledQh9NX3tpmkD9LS-32" value="j=j+1" style="whiteSpace=wrap;html=1;" parent="1" vertex="1">
          <mxGeometry x="1081.51" y="620" width="80" height="20" as="geometry" />
        </mxCell>
        <mxCell id="qnYledQh9NX3tpmkD9LS-52" value="" style="edgeStyle=orthogonalEdgeStyle;rounded=0;orthogonalLoop=1;jettySize=auto;html=1;exitX=1;exitY=0.5;exitDx=0;exitDy=0;entryX=1;entryY=0.5;entryDx=0;entryDy=0;" parent="1" source="qnYledQh9NX3tpmkD9LS-28" target="qnYledQh9NX3tpmkD9LS-50" edge="1">
          <mxGeometry relative="1" as="geometry">
            <mxPoint x="1590" y="650" as="targetPoint" />
            <Array as="points">
              <mxPoint x="1590" y="340" />
              <mxPoint x="1590" y="630" />
            </Array>
          </mxGeometry>
        </mxCell>
        <mxCell id="qnYledQh9NX3tpmkD9LS-38" value="нет" style="text;html=1;align=center;verticalAlign=middle;resizable=0;points=[];autosize=1;strokeColor=none;fillColor=none;" parent="1" vertex="1">
          <mxGeometry x="1545" y="320" width="40" height="20" as="geometry" />
        </mxCell>
        <mxCell id="qnYledQh9NX3tpmkD9LS-39" value="да" style="text;html=1;align=center;verticalAlign=middle;resizable=0;points=[];autosize=1;strokeColor=none;fillColor=none;" parent="1" vertex="1">
          <mxGeometry x="1497.5" y="360" width="30" height="20" as="geometry" />
        </mxCell>
        <mxCell id="qnYledQh9NX3tpmkD9LS-42" value="" style="edgeStyle=orthogonalEdgeStyle;rounded=0;orthogonalLoop=1;jettySize=auto;html=1;" parent="1" source="qnYledQh9NX3tpmkD9LS-40" edge="1">
          <mxGeometry relative="1" as="geometry">
            <mxPoint x="1420" y="440" as="targetPoint" />
          </mxGeometry>
        </mxCell>
        <mxCell id="qnYledQh9NX3tpmkD9LS-43" value="" style="edgeStyle=orthogonalEdgeStyle;rounded=0;orthogonalLoop=1;jettySize=auto;html=1;" parent="1" source="qnYledQh9NX3tpmkD9LS-40" edge="1">
          <mxGeometry relative="1" as="geometry">
            <mxPoint x="1500" y="530" as="targetPoint" />
            <Array as="points">
              <mxPoint x="1560" y="405" />
              <mxPoint x="1560" y="490" />
              <mxPoint x="1500" y="490" />
            </Array>
          </mxGeometry>
        </mxCell>
        <mxCell id="qnYledQh9NX3tpmkD9LS-40" value="a[i][j] &amp;lt;= min" style="rhombus;whiteSpace=wrap;html=1;" parent="1" vertex="1">
          <mxGeometry x="1445" y="380" width="90" height="50" as="geometry" />
        </mxCell>
        <mxCell id="qnYledQh9NX3tpmkD9LS-44" value="да" style="text;html=1;align=center;verticalAlign=middle;resizable=0;points=[];autosize=1;strokeColor=none;fillColor=none;" parent="1" vertex="1">
          <mxGeometry x="1417" y="384" width="30" height="20" as="geometry" />
        </mxCell>
        <mxCell id="qnYledQh9NX3tpmkD9LS-45" value="нет" style="text;html=1;align=center;verticalAlign=middle;resizable=0;points=[];autosize=1;strokeColor=none;fillColor=none;" parent="1" vertex="1">
          <mxGeometry x="1530" y="384" width="40" height="20" as="geometry" />
        </mxCell>
        <mxCell id="qnYledQh9NX3tpmkD9LS-47" value="" style="edgeStyle=orthogonalEdgeStyle;rounded=0;orthogonalLoop=1;jettySize=auto;html=1;" parent="1" source="qnYledQh9NX3tpmkD9LS-46" edge="1">
          <mxGeometry relative="1" as="geometry">
            <mxPoint x="1500" y="530" as="targetPoint" />
            <Array as="points">
              <mxPoint x="1439" y="490" />
            </Array>
          </mxGeometry>
        </mxCell>
        <mxCell id="qnYledQh9NX3tpmkD9LS-46" value="min = a[i][j] m = j + 1" style="whiteSpace=wrap;html=1;" parent="1" vertex="1">
          <mxGeometry x="1402.5" y="440" width="72.5" height="40" as="geometry" />
        </mxCell>
        <mxCell id="qnYledQh9NX3tpmkD9LS-49" value="" style="edgeStyle=orthogonalEdgeStyle;rounded=0;orthogonalLoop=1;jettySize=auto;html=1;" parent="1" source="qnYledQh9NX3tpmkD9LS-48" edge="1">
          <mxGeometry relative="1" as="geometry">
            <mxPoint x="1490" y="320" as="targetPoint" />
            <Array as="points">
              <mxPoint x="1505" y="580" />
              <mxPoint x="1390" y="580" />
              <mxPoint x="1390" y="300" />
              <mxPoint x="1490" y="300" />
            </Array>
          </mxGeometry>
        </mxCell>
        <mxCell id="qnYledQh9NX3tpmkD9LS-48" value="j=j+1" style="whiteSpace=wrap;html=1;" parent="1" vertex="1">
          <mxGeometry x="1465" y="530" width="80" height="35" as="geometry" />
        </mxCell>
        <mxCell id="qnYledQh9NX3tpmkD9LS-50" value="i=i+1" style="whiteSpace=wrap;html=1;" parent="1" vertex="1">
          <mxGeometry x="1480" y="620" width="50" height="20" as="geometry" />
        </mxCell>
        <mxCell id="ixPmONxWvjGd1h-S-8Gt-4" value="" style="edgeStyle=orthogonalEdgeStyle;rounded=0;orthogonalLoop=1;jettySize=auto;html=1;" edge="1" parent="1" source="ixPmONxWvjGd1h-S-8Gt-2" target="ixPmONxWvjGd1h-S-8Gt-3">
          <mxGeometry relative="1" as="geometry" />
        </mxCell>
        <mxCell id="ixPmONxWvjGd1h-S-8Gt-2" value="b[i] = min" style="whiteSpace=wrap;html=1;" vertex="1" parent="1">
          <mxGeometry x="1457.5" y="690" width="70" height="20" as="geometry" />
        </mxCell>
        <mxCell id="ixPmONxWvjGd1h-S-8Gt-8" value="" style="edgeStyle=orthogonalEdgeStyle;rounded=0;orthogonalLoop=1;jettySize=auto;html=1;exitX=0.498;exitY=0.845;exitDx=0;exitDy=0;exitPerimeter=0;" edge="1" parent="1" source="ixPmONxWvjGd1h-S-8Gt-3" target="ixPmONxWvjGd1h-S-8Gt-7">
          <mxGeometry relative="1" as="geometry" />
        </mxCell>
        <mxCell id="ixPmONxWvjGd1h-S-8Gt-3" value="b[i]" style="shape=document;whiteSpace=wrap;html=1;boundedLbl=1;" vertex="1" parent="1">
          <mxGeometry x="1465" y="730" width="55" height="30" as="geometry" />
        </mxCell>
        <mxCell id="ixPmONxWvjGd1h-S-8Gt-7" value="конец" style="rounded=1;whiteSpace=wrap;html=1;" vertex="1" parent="1">
          <mxGeometry x="1462.5" y="780" width="60" height="40" as="geometry" />
        </mxCell>
      </root>
    </mxGraphModel>
  </diagram>
</mxfile>
